<svg xmlns="http://www.w3.org/2000/svg" xmlns:ns1="http://sozi.baierouge.fr" xmlns:xlink="http://www.w3.org/1999/xlink" id="svg2" version="1.1" viewBox="0 0 512 512"><g id="layer1" transform="translate(0 -540.36)"><path id="path2987" d="m176.14 877.35c-18.764-18.764-30.293-44.765-30.293-73.711 0-38.441 24.253-71.67 54.895-89.671v41.482l164.71-95.08-164.71-95.107v0.00004 65.063c-75.4 21.525-131.05 91.269-131.05 173.31 0 49.523 20.277 94.562 52.935 127.22z" style="stroke-width:13.846;block-progression:tb;text-indent:0;color:#000;stroke:#fff;text-transform:none;fill:#000"/><path id="path2987-8" d="m335.86 715.37c18.764 18.764 30.293 44.765 30.293 73.711 0 38.441-24.253 71.67-54.895 89.671v-41.482l-164.71 95.08 164.71 95.107v-0.0001-65.063c75.4-21.525 131.05-91.269 131.05-173.31 0-49.523-20.277-94.562-52.935-127.22z" style="stroke-width:13.846;block-progression:tb;text-indent:0;color:#000;stroke:#fff;text-transform:none;fill:#000"/></g><metadata/></svg>