<svg xmlns="http://www.w3.org/2000/svg" xmlns:ns1="http://sozi.baierouge.fr" xmlns:svg="http://www.w3.org/2000/svg" xmlns:xlink="http://www.w3.org/1999/xlink" id="svg2972" version="1.1" viewBox="0 0 45.717 46.296"><defs id="defs2974"><linearGradient id="linearGradient6092" x1="-150.66" x2="-150.66" y1="-35.774" y2="145.91" gradientUnits="userSpaceOnUse"><stop id="stop5490-26" offset="0" style="stop-color:#fb9e00"/><stop id="stop5492-94" offset="1" style="stop-color:#f44f00"/></linearGradient><linearGradient id="linearGradient3742" x1="-138.55" x2="-150.71" y1="-33.352" y2="69.331" gradientTransform="matrix(.91463 0 0 .91463 739.15 579.42)" gradientUnits="userSpaceOnUse"><stop id="stop5509-6" offset="0" style="stop-color:#fff"/><stop id="stop5511-07" offset="0" style="stop-color:#fff;stop-opacity:.66667"/><stop id="stop5513-43" offset="1" style="stop-color:#9dbbe1;stop-opacity:.089431"/></linearGradient></defs><g id="layer1" transform="translate(-163.02 -259.11)"><g id="g6082" transform="matrix(.26119 0 0 .26119 28.816 117.76)"><path id="path5790" d="m-59.822 55.066c0 50.17-40.671 90.841-90.841 90.841s-90.841-40.671-90.841-90.841 40.671-90.841 90.841-90.841 90.841 40.671 90.841 90.841z" transform="matrix(.96341 0 0 .97561 746.5 576.06)" style="fill:#f44800"/><path id="path5792" d="m-59.822 55.066c0 50.17-40.671 90.841-90.841 90.841s-90.841-40.671-90.841-90.841 40.671-90.841 90.841-90.841 90.841 40.671 90.841 90.841z" transform="matrix(.91463 0 0 .91463 739.15 579.42)" style="fill:url(#linearGradient6092)"/><path id="path244" d="m604.45 572.84c-15.548-0.76361-30.461 4.569-41.986 15.02-11.542 10.462-18.311 24.78-19.074 40.317-0.76365 15.548 4.569 30.461 15.031 41.992 10.445 11.53 24.764 18.299 40.312 19.062 32.101 1.5766 59.478-23.248 61.054-55.338 1.5761-32.09-23.237-59.478-55.338-61.054zm46.051 60.598c-0.26717 5.4399-1.4288 10.624-3.306 15.423-3.909-0.50912-7.7667-1.1549-11.573-1.9484 3.9043-9.479 5.2381-19.869 3.7585-30.302-1.41-9.9236-5.2749-18.922-10.87-26.452 13.97 9.2273 22.869 25.378 21.99 43.28zm-37.37-40.82c-9.5766 10.998-17.75 23.222-24.236 36.435-5.486-3.1795-10.767-6.6773-15.823-10.459 4.1242-7.8379 10.307-14.428 18.082-19.099 6.9094-4.1622 14.442-6.3907 21.977-6.8775zm-28.103 44.937c-4.1364 9.7848-7.3786 20.059-9.5992 30.717-0.34182-0.51754-0.67755-1.046-0.99636-1.5792-6.7443-11.209-8.7125-24.382-5.5582-37.059 0.17504-0.73145 0.38174-1.428 0.59008-2.1578 4.9905 3.6393 10.184 7.0049 15.564 10.079zm3.5588 35.736c-1.5859 0.2281-3.1669 0.3563-4.7396 0.4294 2.034-11.051 5.2099-21.673 9.4111-31.761 9.0428 4.5173 18.542 8.2445 28.429 11.089-0.27443 0.376-0.55021 0.77984-0.83629 1.1664-7.8641 10.459-19.314 17.224-32.264 19.076zm8.5043-39.807c6.5283-13.395 14.89-25.71 24.755-36.683 4.2686 6.1023 7.212 13.241 8.3283 21.103 1.3143 9.2679-0.012 18.484-3.7375 26.814-10.236-2.773-20.054-6.5604-29.345-11.234zm-28.379-38.725c9.6909-8.7943 22.219-13.276 35.286-12.634 2.9531 0.14503 5.8368 0.57049 8.621 1.208-9.0088 0.57026-18.009 3.222-26.259 8.1864-8.7324 5.2522-15.779 12.54-20.66 21.176-2.2652-1.9141-4.4778-3.8812-6.6422-5.9239 2.5328-4.4384 5.7644-8.4918 9.6543-12.012zm-16.025 33.873c0.21839-4.4462 1.0369-8.7629 2.391-12.881 2.1465 1.9528 4.3401 3.8522 6.5862 5.7042-0.70105 1.9242-1.3102 3.903-1.8215 5.9312-2.4962 10.038-2.2778 20.32 0.4958 30.01-5.458-8.5088-8.1572-18.468-7.6515-28.765zm47.785 51.341c11.022-3.721 20.677-10.658 27.816-20.173 1.0478-1.3952 2.031-2.8326 2.9439-4.3124 3.7816 0.83673 7.5972 1.5472 11.469 2.138-8.981 13.826-24.694 22.764-42.229 22.348z" style="fill:#fff"/><path id="path5794" d="m601.36 546.69c-45.16 0-81.909 36.056-83.062 80.938 37.387 15.04 95.243 25.784 166.03-2.0938-2.2099-43.915-38.505-78.844-82.969-78.844z" style="opacity:.7572;fill:url(#linearGradient3742)"/></g></g><metadata/></svg>