<svg xmlns="http://www.w3.org/2000/svg" xmlns:cc="http://web.resource.org/cc/" xmlns:ns1="http://sozi.baierouge.fr" xmlns:xlink="http://www.w3.org/1999/xlink" id="svg1" x="0" y="0" _SVGFile__filename="oldscale/devices/modem.svg" version="1.0" viewBox="0 0 60 60"><g id="g1773" transform="matrix(.99459 0 0 .99459 -.010338 -.14461)"><path id="path1771" d="m57.917 27.473v7.945l-9.885 21.682" transform="matrix(.93564 0 0 .93564 1.7503 1.8762)" style="stroke-linejoin:round;stroke:#fff;stroke-linecap:round;stroke-width:8.0595;fill:none"/><path id="path1772" d="m2.8393 48.817l0.0668 8.416 44.951-0.067 0.067-7.876" transform="matrix(.93564 0 0 .93564 1.7503 1.8762)" style="stroke-linejoin:round;stroke:#fff;stroke-linecap:round;stroke-width:8.0595;fill:none"/><path id="path1764" d="m15.533 26.04c-0.952 0-2.06 0.766-2.485 1.717l-8.4759 18.967c-0.4253 0.951-0.0015 1.717 0.95 1.717h39.292c0.952 0 2.06-0.766 2.485-1.717l8.476-18.967c0.425-0.951 0.002-1.717-0.95-1.717h-39.292z" style="stroke-linejoin:round;stroke:#fff;stroke-linecap:round;stroke-width:7.5408;fill:none"/><path id="path1753" d="m42.125 27.639c16.87-21.55-21.489 0.565-24.855-8.771" style="stroke-linejoin:round;stroke:#fff;stroke-linecap:round;stroke-width:8.1692;fill:none"/><path id="path1768" d="m9.025 12.903l-4.3387-4.9765" style="stroke-linejoin:round;stroke:#fff;stroke-linecap:round;stroke-width:7.5408;fill:none"/><path id="path1769" d="m12.162 10.168l-4.3384-4.9768" style="stroke-linejoin:round;stroke:#fff;stroke-linecap:round;stroke-width:7.5408;fill:none"/><path id="path1770" d="m6.9809 13.974c-0.356 0.311-0.4013 0.841-0.0996 1.187l3.8647 4.432c1.878 2.155 5.154 2.379 7.309 0.501 2.155-1.879 2.379-5.155 0.501-7.31l-3.865-4.4322c-0.301-0.3462-0.833-0.3735-1.189-0.0631l-6.5211 5.6853z" style="stroke-linejoin:round;stroke:#fff;stroke-linecap:round;stroke-width:7.5408;fill:none"/><path id="path839" d="m57.917 26.709v8.709l-9.885 21.682-0.267-8.149 10.152-22.242z" transform="matrix(.93564 0 0 .93564 1.7503 1.8762)" style="stroke-linejoin:round;fill-rule:evenodd;stroke-linecap:round;stroke-width:1.875;fill:#babec3"/><path id="path818" d="m-28.357 59.313c-31.274-39.951 39.838 1.048 46.08-16.26" transform="matrix(-.54943 0 0 .54943 26.927 -4.8368)" style="stroke-linejoin:round;stroke:#000;stroke-linecap:round;stroke-dasharray:5.7186592 5.7186592;stroke-width:5.7187;fill:none"/><path id="path838" d="m2.8393 48.817l0.0668 8.416 44.951-0.067 0.067-8.415-45.085 0.066z" transform="matrix(.93564 0 0 .93564 1.7503 1.8762)" style="stroke-linejoin:round;fill-rule:evenodd;stroke-linecap:round;stroke-width:1.875;fill:#d9dddf"/><path id="rect837" d="m14.731 25.825c-1.017 0-2.202 0.819-2.656 1.836l-9.0591 20.271c-0.4545 1.017-0.0016 1.836 1.0154 1.836h41.995c1.017 0 2.202-0.819 2.656-1.836l9.059-20.271c0.454-1.017 0.002-1.836-1.015-1.836h-41.995z" transform="matrix(.93564 0 0 .93564 1.7503 1.8762)" style="stroke-linejoin:round;fill-rule:evenodd;stroke-linecap:round;stroke-width:1.875;fill:#babec3"/><path id="rect840" d="m8.0324 48.08h1.917v4.125h-1.917v-4.125z" style="stroke-linejoin:round;fill-rule:evenodd;stroke:#62b01e;stroke-linecap:round;stroke-width:1.2568;fill:#62b01e"/><path id="rect842" d="m13.146 48.08h1.917v4.125h-1.917v-4.125z" style="stroke-linejoin:round;fill-rule:evenodd;stroke:#62b01e;stroke-linecap:round;stroke-width:1.2568;fill:#62b01e"/><path id="rect844" d="m18.26 48.08h1.917v4.125h-1.917v-4.125z" style="stroke-linejoin:round;fill-rule:evenodd;stroke:#62b01e;stroke-linecap:round;stroke-width:1.2568;fill:#62b01e"/><path id="path1575" d="m55.94 27.581v7.433l-9.249 20.287" style="stroke-linejoin:round;stroke:#000;stroke-linecap:round;stroke-width:2.5136;fill:none"/><g id="g1572" transform="matrix(.93564 0 -.42614 .93564 21.663 4.065)" style="stroke:#000;fill:#000"><path id="rect1569" d="m6.7143 42.319h2.0487v4.409h-2.0487v-4.409z" style="stroke-linejoin:round;fill-rule:evenodd;stroke:#519315;stroke-linecap:round;stroke-width:1.3432;fill:#519315"/><path id="rect1570" d="m12.18 42.319h2.049v4.409h-2.049v-4.409z" style="stroke-linejoin:round;fill-rule:evenodd;stroke:#519315;stroke-linecap:round;stroke-width:1.3432;fill:#519315"/><path id="rect1571" d="m17.646 42.319h2.048v4.409h-2.048v-4.409z" style="stroke-linejoin:round;fill-rule:evenodd;stroke:#519315;stroke-linecap:round;stroke-width:1.3432;fill:#519315"/></g><path id="path2198" d="m2.8393 48.817l0.0668 8.416 44.951-0.067 0.067-8.415-45.085 0.066z" transform="matrix(.93564 0 0 .93564 1.7503 1.8762)" style="stroke-linejoin:round;stroke-linecap:round;stroke-width:1.875;fill:none"/><path id="path2199" d="m15.533 26.04c-0.952 0-2.06 0.766-2.485 1.717l-8.4759 18.967c-0.4253 0.951-0.0015 1.717 0.95 1.717h39.292c0.952 0 2.06-0.766 2.485-1.717l8.476-18.967c0.425-0.951 0.002-1.717-0.95-1.717h-39.292z" style="stroke-linejoin:round;stroke:#000;stroke-linecap:round;stroke-width:2.5136;fill:none"/><path id="path2200" d="m2.8393 48.817l0.0668 8.416 44.951-0.067 0.067-7.876" transform="matrix(.93564 0 0 .93564 1.7503 1.8762)" style="stroke-linejoin:round;stroke:#000;stroke-linecap:round;stroke-width:2.6865;fill:none"/><path id="path2834" d="m1.5625 13.516v-7.1879" transform="matrix(.70524 -.61486 .61486 .70524 -.62063 4.1705)" style="stroke-linejoin:round;stroke:#000;stroke-linecap:round;stroke-width:2.6865;fill:none"/><path id="path2836" d="m6.0938 13.516v-7.1879" transform="matrix(.70524 -.61486 .61486 .70524 -.62063 4.1705)" style="stroke-linejoin:round;stroke:#000;stroke-linecap:round;stroke-width:2.6865;fill:none"/><path id="rect2202" d="m-0.70983 11.839c-0.51417 0-0.93057 0.402-0.93057 0.902v6.401c0 3.113 2.528 5.64 5.64 5.64s5.6399-2.527 5.6399-5.64v-6.401c0-0.5-0.4164-0.902-0.9306-0.902h-9.4187z" transform="matrix(.70524 -.61486 .61486 .70524 -.069025 5.0473)" style="stroke-linejoin:round;fill-rule:evenodd;stroke:#000;stroke-linecap:round;stroke-width:2.6865;fill:#d9dddf"/></g><metadata/></svg>